<svg
        xmlns="http://www.w3.org/2000/svg"
        version="1.1"
        xmlns:xlink="http://www.w3.org/1999/xlink" xmlns:svgjs="http://svgjs.com/svgjs" width="512" height="512" x="0" y="0" viewBox="0 0 512 512" style="enable-background:new 0 0 512 512" xml:space="preserve" class=""><g><path fill="#60daa8" d="M512 256c0 141.387-114.613 256-256 256S0 397.387 0 256 114.613 0 256 0s256 114.613 256 256zm0 0" data-original="#60daa8" class=""></path><path fill="#00ce8e" d="M237.54 428.992c21.124-20.02 30.491-47.676 30.491-47.676l-34.047-28.906s-41.836-80.37-41.578-80.168C99 163.622 169.516 16.352 170.312 14.692 71.079 49.941 0 144.675 0 256c0 131.762 99.566 240.277 227.555 254.438-16.676-25.258-12.875-59.778 9.984-81.446zm0 0" data-original="#00ce8e" class=""></path><path fill="#fffcdc" d="M240.352 393.605a37.147 37.147 0 0 1-22.754-7.765l-120.68-93.09c-16.305-12.574-19.328-35.988-6.75-52.293 12.574-16.3 35.988-19.324 52.293-6.75l93.367 72.027 128.82-142.57c13.805-15.277 37.38-16.473 52.66-2.664 15.278 13.8 16.473 37.379 2.665 52.656L268.03 381.316c-7.328 8.11-17.469 12.29-27.68 12.29zm0 0" data-original="#fffcdc" class=""></path></g></svg>